<svg xmlns:inkscape="http://www.inkscape.org/namespaces/inkscape" xmlns:sodipodi="http://sodipodi.sourceforge.net/DTD/sodipodi-0.dtd" xmlns="http://www.w3.org/2000/svg" xmlns:svg="http://www.w3.org/2000/svg" id="Layer_1" data-name="Layer 1" viewBox="0 0 750.00002 531.61041" version="1.1" sodipodi:docname="National_Coalition_Party_(political_party)_logo.svg" width="750" height="531.61041" inkscape:version="1.2.1 (9c6d41e410, 2022-07-14)">
  <sodipodi:namedview id="namedview50" pagecolor="#ffffff" bordercolor="#000000" borderopacity="0.25" inkscape:showpageshadow="2" inkscape:pageopacity="0.0" inkscape:pagecheckerboard="0" inkscape:deskcolor="#d1d1d1" showgrid="false" inkscape:zoom="1" inkscape:cx="314" inkscape:cy="243.5" inkscape:window-width="1440" inkscape:window-height="838" inkscape:window-x="-8" inkscape:window-y="-8" inkscape:window-maximized="1" inkscape:current-layer="Layer_1"/>
  <defs id="defs29">
    <style id="style27">.cls-1{fill:#003a54;}</style>
  </defs>
  <g id="Group_703" data-name="Group 703" transform="matrix(3.7500001,0,0,3.7500001,-0.10924697,-0.00456993)">
    <g id="nimilogo"/>
    <g id="ruiskukka_white" data-name="ruiskukka white">
      <path id="Path_36" data-name="Path 36" class="cls-1" d="m 84.102441,15.19663 a 5.3759845,5.3759845 0 0 0 6.349224,-2.085511 L 97.681437,1.5249454 a 2.5489582,2.5489582 0 0 1 3.383163,-1.29765147 2.7343369,2.7343369 0 0 1 1.29765,1.29765147 l 7.22977,11.5861736 a 5.4223292,5.4223292 0 0 0 6.34923,2.085511 l 13.11554,-5.051572 c 2.27089,-0.8805487 3.33682,0 2.36358,2.409925 l -29.79963,71.973309 c -0.9269,2.224546 -2.456273,2.224546 -3.336822,0 L 68.623314,12.554983 c -0.926894,-2.224546 0,-3.2904737 2.363579,-2.409925 z" style="stroke-width:4.63447"/>
      <path id="Path_37" data-name="Path 37" class="cls-1" d="m 28.720532,51.391836 a 5.5150186,5.5150186 0 0 0 3.05875,-6.02481 l -3.05875,-13.300927 c -0.556136,-2.409924 0.926894,-3.800265 3.244129,-3.244129 l 13.300927,3.012405 a 5.4223292,5.4223292 0 0 0 6.02481,-3.012405 l 5.839431,-12.883825 c 0.926894,-2.224545 2.502614,-2.131856 3.429508,0 L 90.40532,87.86511 c 0.926894,2.27089 0,3.336818 -2.36358,2.36358 L 15.883052,60.475396 c -2.27089,-0.926894 -2.27089,-2.456269 0,-3.475852 z" style="stroke-width:4.63447"/>
      <g id="Group_9" data-name="Group 9">
        <path id="Path_38" data-name="Path 38" class="cls-1" d="m 15.141537,116.13537 a 5.5150186,5.5150186 0 0 0 -2.131856,-6.48825 L 1.5161966,102.51003 a 2.5489582,2.5489582 0 0 1 0,-4.634466 L 13.10237,90.599447 a 5.4223292,5.4223292 0 0 0 2.131856,-6.349223 L 10.13631,71.134676 c -0.8805495,-2.224545 0.231723,-3.290473 2.456268,-2.36358 l 71.926966,29.799639 c 2.224545,0.926894 2.224545,2.456265 0,3.336815 L 12.499889,131.6145 c -2.27089,0.9269 -3.3368179,0 -2.456269,-2.40992 z" style="stroke-width:4.63447"/>
        <path id="Path_39" data-name="Path 39" class="cls-1" d="m 184.99484,84.20388 a 5.5150186,5.5150186 0 0 0 1.90013,6.349223 l 11.58618,7.229772 a 2.5953029,2.5953029 0 0 1 1.34399,3.383165 2.8270263,2.8270263 0 0 1 -1.34399,1.29765 l -11.58618,7.18343 a 5.4686739,5.4686739 0 0 0 -2.08551,6.34922 l 5.09792,13.11555 c 0.88055,2.22454 0,3.33682 -2.45627,2.36358 l -71.78793,-29.7533 c -2.22455,-0.92689 -2.22455,-2.456265 0,-3.336814 l 71.97331,-29.799638 c 2.22454,-0.926894 3.33682,0 2.45627,2.363579 z" style="stroke-width:4.63447"/>
      </g>
      <path id="Path_40" data-name="Path 40" class="cls-1" d="m 148.79963,28.82197 a 5.4686739,5.4686739 0 0 0 6.02481,3.012405 L 168.3571,28.82197 c 2.36357,-0.556136 3.80026,0.926894 3.24412,3.244129 l -3.24412,13.300927 a 5.4686739,5.4686739 0 0 0 3.05875,6.02481 l 12.83748,5.700398 c 2.22454,0.926893 2.1782,2.502613 0,3.429507 l -72.01966,29.845983 c -2.22454,0.926894 -3.29047,0 -2.36358,-2.36358 l 29.79964,-71.973309 c 0.92689,-2.224546 2.45627,-2.224546 3.47585,0 z" style="stroke-width:4.63447"/>
      <path id="Path_41" data-name="Path 41" class="cls-1" d="m 100.04502,141.76399 a 33.692593,33.692593 0 0 0 30.91191,-20.5307 3.336818,3.336818 0 0 0 -1.7611,-4.31006 l -27.80682,-11.58617 a 3.336818,3.336818 0 0 0 -2.502611,0 l -27.806817,11.58617 a 3.2441286,3.2441286 0 0 0 -1.761098,4.21737 v 0 a 33.414524,33.414524 0 0 0 30.726536,20.62339 z" style="stroke-width:4.63447"/>
    </g>
  </g>
</svg>